# xmcd
#
# Track frame offsets:
#        150
#        15747
#        34947
#        46924
#        79854
#        97665
#        117292
#        139156
#        154789
#        171962
#        186272
#        200487
#
# Disc length: 2792 seconds
#
# Revision: 0
# Processed by: cddbd v1.5.1PL2 Copyright (c) Steve Scherf et al.
# Submitted via: ExactAudioCopy v0.95b4
#
DISCID=990ae60c
DTITLE=slow food music - EspanolLounge
DYEAR=2006
DGENRE=Dance
TTITLE0=por tngos - Samarav vargas
TTITLE1=Pensa En Mi - MusicaNostra
TTITLE2=ya no me enamoro mas - Samara vargas
TTITLE3=fiest a por bulerias - Samara vargas
TTITLE4=Fandango De Taraor - MusicaNostra
TTITLE5=Ribeira E Golpe - Milladoiro
TTITLE6=Aurora Boreal - DamiaTimoner
TTITLE7=se equivoco el amor - Samara vargas
TTITLE8=Estrelina Do Luceiro - Milladoiro
TTITLE9=me escapo contigo - Samara vargas
TTITLE10=O Santo De Polvora - Milladoiro
TTITLE11=Mateixa Des Garrover - MusicaNostra
EXTD=
EXTT0=
EXTT1=
EXTT2=
EXTT3=
EXTT4=
EXTT5=
EXTT6=
EXTT7=
EXTT8=
EXTT9=
EXTT10=
EXTT11=
PLAYORDER=
